<svg width="1219" height="84" viewBox="0 0 1219 84" fill="none" xmlns="http://www.w3.org/2000/svg">
<rect width="1219" height="84" fill="#007765"/>
<g clip-path="url(#clip0)">
<path d="M58.2247 58.9095L55 64.9612V31.9871C55 25.3534 60.3615 20 67.0051 20H99.9899C90.6267 22.9095 80.875 29.4655 74.4257 36.9526C67.3159 45.1379 63.3142 50.7629 58.2247 58.9095Z" fill="white"/>
<path d="M100.068 20C100.068 20 85.6934 26.7112 81.3032 36.7974C78.9722 42.1897 78.3894 48.6681 74.1546 52.7414C71.2407 55.5345 67.1614 56.5819 63.587 58.4052C61.2559 59.6078 56.9046 62.4785 55.0397 65.0388H88.0634C94.707 65.0388 100.068 59.6853 100.068 53.0517V20ZM116.736 43.5474V35.0129C116.736 34.819 116.891 34.6638 117.085 34.6638H122.486C123.496 34.6638 124.351 35.0905 124.351 36.5259V43.2759C124.351 44.3233 123.496 45.1379 122.486 45.1379H118.251C117.435 45.0216 116.775 44.3621 116.736 43.5474ZM114.987 32.0647C114.405 32.0647 113.977 32.4914 113.977 33.0345V55.3793H116.347C116.541 55.3793 116.697 55.2241 116.697 55.0302V46.7285C117.085 47.2328 117.862 47.7371 118.834 47.7371H122.447C124.972 47.7371 127.031 45.9526 127.031 43.3147V36.4871C127.031 33.3836 124.972 32.0647 122.447 32.0647H114.987ZM130.916 32.0647V47.3879C130.916 47.5819 131.072 47.7371 131.266 47.7371H133.636V32.375C133.636 32.181 133.481 32.0647 133.286 32.0647H130.916ZM130.916 25.0431V27.6034C130.916 27.7974 131.072 27.9526 131.266 27.9526H133.636V25.3922C133.636 25.1983 133.481 25.0431 133.286 25.0431H130.916ZM140.318 38.194V36.4871C140.318 35.2457 141.134 34.625 142.183 34.625H146.496C147.739 34.625 148.322 35.2069 148.322 36.4871V38.194C148.322 38.3879 148.166 38.5431 147.972 38.5431H140.668C140.435 38.5043 140.318 38.3491 140.318 38.194ZM142.183 32.0647C139.658 32.0647 137.599 33.6164 137.599 36.5259V43.1595C137.599 45.681 139.619 47.7371 142.183 47.7371H150.303V45.4871C150.303 45.2931 150.148 45.1379 149.954 45.1379H142.183C141.134 45.1379 140.318 44.3233 140.318 43.2759V40.4828C140.59 40.8707 141.057 41.0647 141.562 41.0647H150.148C150.886 41.0647 150.964 40.6379 150.964 40.0948V36.4871C150.964 33.5776 148.943 32.0259 146.379 32.0259H142.183V32.0647ZM157.258 43.2759V36.5259C157.258 35.4784 158.074 34.6638 159.122 34.6638H163.357C164.134 34.7414 164.795 35.4009 164.872 36.2543V44.7888C164.872 44.9828 164.717 45.0991 164.523 45.0991H159.122C158.074 45.1379 157.258 44.3233 157.258 43.2759ZM165.183 24.2284C164.989 24.2284 164.834 24.3836 164.834 24.5776V33.0733C164.445 32.5302 163.668 32.0647 162.658 32.0647H159.006C156.481 32.0647 154.499 34.0819 154.499 36.6422V43.1595C154.499 45.681 156.519 47.7371 159.084 47.7371H166.543C167.126 47.7371 167.553 47.3103 167.553 46.7285V24.2284H165.183ZM175.557 43.5474V35.0129C175.557 34.819 175.712 34.6638 175.906 34.6638H181.268C182.278 34.6638 183.133 35.0905 183.133 36.5259V43.2759C183.133 44.3233 182.278 45.1379 181.268 45.1379H177.033C176.217 45.0216 175.595 44.3621 175.557 43.5474ZM173.808 32.0647C173.226 32.0647 172.798 32.4914 172.798 33.0345V55.3793H175.168C175.362 55.3793 175.518 55.2241 175.518 55.0302V46.7285C175.906 47.2328 176.683 47.7371 177.655 47.7371H181.268C183.793 47.7371 185.852 45.9526 185.852 43.3147V36.4871C185.852 33.3836 183.793 32.0647 181.268 32.0647H173.808ZM189.737 32.0647V47.3879C189.737 47.5819 189.893 47.7371 190.087 47.7371H192.457V32.375C192.457 32.181 192.302 32.0647 192.107 32.0647H189.737ZM189.737 25.0431V27.6034C189.737 27.7974 189.893 27.9526 190.087 27.9526H192.457V25.3922C192.457 25.1983 192.302 25.0431 192.107 25.0431H189.737ZM199.217 43.5474V35.0129C199.217 34.819 199.372 34.6638 199.567 34.6638H204.967C205.977 34.6638 206.832 35.0905 206.832 36.5259V43.2759C206.832 44.3233 205.977 45.1379 204.967 45.1379H200.732C199.916 45.0216 199.295 44.3621 199.217 43.5474ZM197.508 32.0647C196.925 32.0647 196.497 32.4914 196.497 33.0345V55.3793H198.867C199.062 55.3793 199.217 55.2241 199.217 55.0302V46.7285C199.606 47.2328 200.383 47.7371 201.354 47.7371H204.967C207.492 47.7371 209.552 45.9526 209.552 43.3147V36.4871C209.552 33.3836 207.492 32.0647 204.967 32.0647H197.508ZM216.04 38.194V36.4871C216.04 35.2457 216.856 34.625 217.905 34.625H222.217C223.421 34.625 224.043 35.2069 224.043 36.4871V38.194C224.043 38.3879 223.888 38.5431 223.693 38.5431H216.389C216.156 38.5043 216.04 38.3491 216.04 38.194ZM217.905 32.0647C215.379 32.0647 213.32 33.6164 213.32 36.5259V43.1595C213.32 45.681 215.34 47.7371 217.905 47.7371H226.025V45.4871C226.025 45.2931 225.869 45.1379 225.675 45.1379H217.905C216.856 45.1379 216.04 44.3233 216.04 43.2759V40.4828C216.312 40.8707 216.778 41.0647 217.244 41.0647H225.83C226.568 41.0647 226.646 40.6379 226.646 40.0948V36.4871C226.646 33.5776 224.626 32.0259 222.062 32.0259H217.905V32.0647ZM235.349 32.0647C234.378 32.0647 233.601 32.5302 233.212 33.0733V32.375C233.212 32.181 233.057 32.0647 232.862 32.0647H230.492V47.3879C230.492 47.5819 230.648 47.7371 230.842 47.7371H233.212V36.0991C233.29 35.3621 233.872 34.7026 234.727 34.7026H238.651C238.845 34.7026 239.001 34.5474 239.001 34.3534V32.1034H235.349V32.0647Z" fill="white"/>
</g>
<path d="M746.109 34.2383V37.3203H748.348V39.4297H746.109V46.5078C746.109 46.9922 746.203 47.3438 746.391 47.5625C746.586 47.7734 746.93 47.8789 747.422 47.8789C747.75 47.8789 748.082 47.8398 748.418 47.7617V49.9648C747.77 50.1445 747.145 50.2344 746.543 50.2344C744.355 50.2344 743.262 49.0273 743.262 46.6133V39.4297H741.176V37.3203H743.262V34.2383H746.109ZM753.34 38.7031C754.27 37.625 755.445 37.0859 756.867 37.0859C759.57 37.0859 760.941 38.6289 760.98 41.7148V50H758.133V41.8203C758.133 40.9453 757.941 40.3281 757.559 39.9688C757.184 39.6016 756.629 39.418 755.895 39.418C754.754 39.418 753.902 39.9258 753.34 40.9414V50H750.492V32H753.34V38.7031ZM769.453 50.2344C767.648 50.2344 766.184 49.668 765.059 48.5352C763.941 47.3945 763.383 45.8789 763.383 43.9883V43.6367C763.383 42.3711 763.625 41.2422 764.109 40.25C764.602 39.25 765.289 38.4727 766.172 37.918C767.055 37.3633 768.039 37.0859 769.125 37.0859C770.852 37.0859 772.184 37.6367 773.121 38.7383C774.066 39.8398 774.539 41.3984 774.539 43.4141V44.5625H766.254C766.34 45.6094 766.688 46.4375 767.297 47.0469C767.914 47.6562 768.688 47.9609 769.617 47.9609C770.922 47.9609 771.984 47.4336 772.805 46.3789L774.34 47.8438C773.832 48.6016 773.152 49.1914 772.301 49.6133C771.457 50.0273 770.508 50.2344 769.453 50.2344ZM769.113 39.3711C768.332 39.3711 767.699 39.6445 767.215 40.1914C766.738 40.7383 766.434 41.5 766.301 42.4766H771.727V42.2656C771.664 41.3125 771.41 40.5938 770.965 40.1094C770.52 39.6172 769.902 39.3711 769.113 39.3711ZM793.84 43.7891C793.84 45.75 793.395 47.3164 792.504 48.4883C791.613 49.6523 790.418 50.2344 788.918 50.2344C787.527 50.2344 786.414 49.7773 785.578 48.8633V54.875H782.73V37.3203H785.355L785.473 38.6094C786.309 37.5938 787.445 37.0859 788.883 37.0859C790.43 37.0859 791.641 37.6641 792.516 38.8203C793.398 39.9688 793.84 41.5664 793.84 43.6133V43.7891ZM791.004 43.543C791.004 42.2773 790.75 41.2734 790.242 40.5312C789.742 39.7891 789.023 39.418 788.086 39.418C786.922 39.418 786.086 39.8984 785.578 40.8594V46.4844C786.094 47.4688 786.938 47.9609 788.109 47.9609C789.016 47.9609 789.723 47.5977 790.23 46.8711C790.746 46.1367 791.004 45.0273 791.004 43.543ZM802.898 39.9219C802.523 39.8594 802.137 39.8281 801.738 39.8281C800.434 39.8281 799.555 40.3281 799.102 41.3281V50H796.254V37.3203H798.973L799.043 38.7383C799.73 37.6367 800.684 37.0859 801.902 37.0859C802.309 37.0859 802.645 37.1406 802.91 37.25L802.898 39.9219ZM803.742 43.543C803.742 42.3008 803.988 41.1836 804.48 40.1914C804.973 39.1914 805.664 38.4258 806.555 37.8945C807.445 37.3555 808.469 37.0859 809.625 37.0859C811.336 37.0859 812.723 37.6367 813.785 38.7383C814.855 39.8398 815.434 41.3008 815.52 43.1211L815.531 43.7891C815.531 45.0391 815.289 46.1562 814.805 47.1406C814.328 48.125 813.641 48.8867 812.742 49.4258C811.852 49.9648 810.82 50.2344 809.648 50.2344C807.859 50.2344 806.426 49.6406 805.348 48.4531C804.277 47.2578 803.742 45.668 803.742 43.6836V43.543ZM806.59 43.7891C806.59 45.0938 806.859 46.1172 807.398 46.8594C807.938 47.5938 808.688 47.9609 809.648 47.9609C810.609 47.9609 811.355 47.5859 811.887 46.8359C812.426 46.0859 812.695 44.9883 812.695 43.543C812.695 42.2617 812.418 41.2461 811.863 40.4961C811.316 39.7461 810.57 39.3711 809.625 39.3711C808.695 39.3711 807.957 39.7422 807.41 40.4844C806.863 41.2188 806.59 42.3203 806.59 43.7891ZM829.066 43.7891C829.066 45.7578 828.625 47.3242 827.742 48.4883C826.867 49.6523 825.66 50.2344 824.121 50.2344C822.637 50.2344 821.48 49.6992 820.652 48.6289L820.512 50H817.934V32H820.781V38.5391C821.602 37.5703 822.707 37.0859 824.098 37.0859C825.645 37.0859 826.859 37.6602 827.742 38.8086C828.625 39.957 829.066 41.5625 829.066 43.625V43.7891ZM826.219 43.543C826.219 42.168 825.977 41.1367 825.492 40.4492C825.008 39.7617 824.305 39.418 823.383 39.418C822.148 39.418 821.281 39.957 820.781 41.0352V46.2617C821.289 47.3633 822.164 47.9141 823.406 47.9141C824.297 47.9141 824.984 47.582 825.469 46.918C825.953 46.2539 826.203 45.25 826.219 43.9062V43.543ZM834.492 50H831.645V32H834.492V50ZM843.188 50.2344C841.383 50.2344 839.918 49.668 838.793 48.5352C837.676 47.3945 837.117 45.8789 837.117 43.9883V43.6367C837.117 42.3711 837.359 41.2422 837.844 40.25C838.336 39.25 839.023 38.4727 839.906 37.918C840.789 37.3633 841.773 37.0859 842.859 37.0859C844.586 37.0859 845.918 37.6367 846.855 38.7383C847.801 39.8398 848.273 41.3984 848.273 43.4141V44.5625H839.988C840.074 45.6094 840.422 46.4375 841.031 47.0469C841.648 47.6562 842.422 47.9609 843.352 47.9609C844.656 47.9609 845.719 47.4336 846.539 46.3789L848.074 47.8438C847.566 48.6016 846.887 49.1914 846.035 49.6133C845.191 50.0273 844.242 50.2344 843.188 50.2344ZM842.848 39.3711C842.066 39.3711 841.434 39.6445 840.949 40.1914C840.473 40.7383 840.168 41.5 840.035 42.4766H845.461V42.2656C845.398 41.3125 845.145 40.5938 844.699 40.1094C844.254 39.6172 843.637 39.3711 842.848 39.3711ZM853.172 37.3203L853.254 38.6445C854.145 37.6055 855.363 37.0859 856.91 37.0859C858.605 37.0859 859.766 37.7344 860.391 39.0312C861.312 37.7344 862.609 37.0859 864.281 37.0859C865.68 37.0859 866.719 37.4727 867.398 38.2461C868.086 39.0195 868.438 40.1602 868.453 41.668V50H865.605V41.75C865.605 40.9453 865.43 40.3555 865.078 39.9805C864.727 39.6055 864.145 39.418 863.332 39.418C862.684 39.418 862.152 39.5938 861.738 39.9453C861.332 40.2891 861.047 40.7422 860.883 41.3047L860.895 50H858.047V41.6562C858.008 40.1641 857.246 39.418 855.762 39.418C854.621 39.418 853.812 39.8828 853.336 40.8125V50H850.488V37.3203H853.172Z" fill="white"/>
<path d="M1075.05 35.2383V38.3203H1077.29V40.4297H1075.05V47.5078C1075.05 47.9922 1075.15 48.3438 1075.34 48.5625C1075.53 48.7734 1075.88 48.8789 1076.37 48.8789C1076.7 48.8789 1077.03 48.8398 1077.36 48.7617V50.9648C1076.71 51.1445 1076.09 51.2344 1075.49 51.2344C1073.3 51.2344 1072.21 50.0273 1072.21 47.6133V40.4297H1070.12V38.3203H1072.21V35.2383H1075.05ZM1082.29 39.7031C1083.21 38.625 1084.39 38.0859 1085.81 38.0859C1088.52 38.0859 1089.89 39.6289 1089.93 42.7148V51H1087.08V42.8203C1087.08 41.9453 1086.89 41.3281 1086.5 40.9688C1086.13 40.6016 1085.57 40.418 1084.84 40.418C1083.7 40.418 1082.85 40.9258 1082.29 41.9414V51H1079.44V33H1082.29V39.7031ZM1098.4 51.2344C1096.59 51.2344 1095.13 50.668 1094 49.5352C1092.89 48.3945 1092.33 46.8789 1092.33 44.9883V44.6367C1092.33 43.3711 1092.57 42.2422 1093.05 41.25C1093.55 40.25 1094.23 39.4727 1095.12 38.918C1096 38.3633 1096.98 38.0859 1098.07 38.0859C1099.8 38.0859 1101.13 38.6367 1102.07 39.7383C1103.01 40.8398 1103.48 42.3984 1103.48 44.4141V45.5625H1095.2C1095.29 46.6094 1095.63 47.4375 1096.24 48.0469C1096.86 48.6562 1097.63 48.9609 1098.56 48.9609C1099.87 48.9609 1100.93 48.4336 1101.75 47.3789L1103.29 48.8438C1102.78 49.6016 1102.1 50.1914 1101.25 50.6133C1100.4 51.0273 1099.45 51.2344 1098.4 51.2344ZM1098.06 40.3711C1097.28 40.3711 1096.64 40.6445 1096.16 41.1914C1095.68 41.7383 1095.38 42.5 1095.25 43.4766H1100.67V43.2656C1100.61 42.3125 1100.36 41.5938 1099.91 41.1094C1099.46 40.6172 1098.85 40.3711 1098.06 40.3711ZM1115.25 35.2383V38.3203H1117.49V40.4297H1115.25V47.5078C1115.25 47.9922 1115.34 48.3438 1115.53 48.5625C1115.73 48.7734 1116.07 48.8789 1116.56 48.8789C1116.89 48.8789 1117.22 48.8398 1117.56 48.7617V50.9648C1116.91 51.1445 1116.29 51.2344 1115.68 51.2344C1113.5 51.2344 1112.4 50.0273 1112.4 47.6133V40.4297H1110.32V38.3203H1112.4V35.2383H1115.25ZM1125.26 51.2344C1123.45 51.2344 1121.99 50.668 1120.86 49.5352C1119.75 48.3945 1119.19 46.8789 1119.19 44.9883V44.6367C1119.19 43.3711 1119.43 42.2422 1119.91 41.25C1120.41 40.25 1121.09 39.4727 1121.98 38.918C1122.86 38.3633 1123.84 38.0859 1124.93 38.0859C1126.66 38.0859 1127.99 38.6367 1128.93 39.7383C1129.87 40.8398 1130.34 42.3984 1130.34 44.4141V45.5625H1122.06C1122.14 46.6094 1122.49 47.4375 1123.1 48.0469C1123.72 48.6562 1124.49 48.9609 1125.42 48.9609C1126.73 48.9609 1127.79 48.4336 1128.61 47.3789L1130.14 48.8438C1129.64 49.6016 1128.96 50.1914 1128.11 50.6133C1127.26 51.0273 1126.31 51.2344 1125.26 51.2344ZM1124.92 40.3711C1124.14 40.3711 1123.5 40.6445 1123.02 41.1914C1122.54 41.7383 1122.24 42.5 1122.11 43.4766H1127.53V43.2656C1127.47 42.3125 1127.21 41.5938 1126.77 41.1094C1126.32 40.6172 1125.71 40.3711 1124.92 40.3711ZM1140.14 51C1140.02 50.7578 1139.91 50.3633 1139.81 49.8164C1138.91 50.7617 1137.8 51.2344 1136.48 51.2344C1135.21 51.2344 1134.17 50.8711 1133.37 50.1445C1132.56 49.418 1132.16 48.5195 1132.16 47.4492C1132.16 46.0977 1132.66 45.0625 1133.66 44.3438C1134.67 43.6172 1136.11 43.2539 1137.97 43.2539H1139.72V42.4219C1139.72 41.7656 1139.54 41.2422 1139.17 40.8516C1138.8 40.4531 1138.24 40.2539 1137.49 40.2539C1136.84 40.2539 1136.31 40.418 1135.9 40.7461C1135.48 41.0664 1135.28 41.4766 1135.28 41.9766H1132.43C1132.43 41.2812 1132.66 40.6328 1133.12 40.0312C1133.58 39.4219 1134.21 38.9453 1135 38.6016C1135.79 38.2578 1136.68 38.0859 1137.66 38.0859C1139.14 38.0859 1140.32 38.4609 1141.21 39.2109C1142.09 39.9531 1142.54 41 1142.57 42.3516V48.0703C1142.57 49.2109 1142.73 50.1211 1143.05 50.8008V51H1140.14ZM1137.01 48.9492C1137.57 48.9492 1138.1 48.8125 1138.59 48.5391C1139.09 48.2656 1139.47 47.8984 1139.72 47.4375V45.0469H1138.18C1137.13 45.0469 1136.34 45.2305 1135.8 45.5977C1135.27 45.9648 1135.01 46.4844 1135.01 47.1562C1135.01 47.7031 1135.19 48.1406 1135.55 48.4688C1135.91 48.7891 1136.4 48.9492 1137.01 48.9492ZM1148.23 38.3203L1148.31 39.6445C1149.2 38.6055 1150.42 38.0859 1151.96 38.0859C1153.66 38.0859 1154.82 38.7344 1155.45 40.0312C1156.37 38.7344 1157.66 38.0859 1159.34 38.0859C1160.73 38.0859 1161.77 38.4727 1162.45 39.2461C1163.14 40.0195 1163.49 41.1602 1163.51 42.668V51H1160.66V42.75C1160.66 41.9453 1160.48 41.3555 1160.13 40.9805C1159.78 40.6055 1159.2 40.418 1158.39 40.418C1157.74 40.418 1157.21 40.5938 1156.79 40.9453C1156.39 41.2891 1156.1 41.7422 1155.94 42.3047L1155.95 51H1153.1V42.6562C1153.06 41.1641 1152.3 40.418 1150.82 40.418C1149.68 40.418 1148.87 40.8828 1148.39 41.8125V51H1145.54V38.3203H1148.23Z" fill="white"/>
<path d="M898.141 44.6602V51H895.176V33.9375H901.703C903.609 33.9375 905.121 34.4336 906.238 35.4258C907.363 36.418 907.926 37.7305 907.926 39.3633C907.926 41.0352 907.375 42.3359 906.273 43.2656C905.18 44.1953 903.645 44.6602 901.668 44.6602H898.141ZM898.141 42.2812H901.703C902.758 42.2812 903.562 42.0352 904.117 41.543C904.672 41.043 904.949 40.3242 904.949 39.3867C904.949 38.4648 904.668 37.7305 904.105 37.1836C903.543 36.6289 902.77 36.3438 901.785 36.3281H898.141V42.2812ZM913.281 51H910.434V38.3203H913.281V51ZM910.258 35.0273C910.258 34.5898 910.395 34.2266 910.668 33.9375C910.949 33.6484 911.348 33.5039 911.863 33.5039C912.379 33.5039 912.777 33.6484 913.059 33.9375C913.34 34.2266 913.48 34.5898 913.48 35.0273C913.48 35.457 913.34 35.8164 913.059 36.1055C912.777 36.3867 912.379 36.5273 911.863 36.5273C911.348 36.5273 910.949 36.3867 910.668 36.1055C910.395 35.8164 910.258 35.457 910.258 35.0273ZM921.977 51.2344C920.172 51.2344 918.707 50.668 917.582 49.5352C916.465 48.3945 915.906 46.8789 915.906 44.9883V44.6367C915.906 43.3711 916.148 42.2422 916.633 41.25C917.125 40.25 917.812 39.4727 918.695 38.918C919.578 38.3633 920.562 38.0859 921.648 38.0859C923.375 38.0859 924.707 38.6367 925.645 39.7383C926.59 40.8398 927.062 42.3984 927.062 44.4141V45.5625H918.777C918.863 46.6094 919.211 47.4375 919.82 48.0469C920.438 48.6562 921.211 48.9609 922.141 48.9609C923.445 48.9609 924.508 48.4336 925.328 47.3789L926.863 48.8438C926.355 49.6016 925.676 50.1914 924.824 50.6133C923.98 51.0273 923.031 51.2344 921.977 51.2344ZM921.637 40.3711C920.855 40.3711 920.223 40.6445 919.738 41.1914C919.262 41.7383 918.957 42.5 918.824 43.4766H924.25V43.2656C924.188 42.3125 923.934 41.5938 923.488 41.1094C923.043 40.6172 922.426 40.3711 921.637 40.3711ZM928.75 44.5664C928.75 42.6133 929.203 41.0469 930.109 39.8672C931.016 38.6797 932.23 38.0859 933.754 38.0859C935.098 38.0859 936.184 38.5547 937.012 39.4922V33H939.859V51H937.281L937.141 49.6875C936.289 50.7188 935.152 51.2344 933.73 51.2344C932.246 51.2344 931.043 50.6367 930.121 49.4414C929.207 48.2461 928.75 46.6211 928.75 44.5664ZM931.598 44.8125C931.598 46.1016 931.844 47.1094 932.336 47.8359C932.836 48.5547 933.543 48.9141 934.457 48.9141C935.621 48.9141 936.473 48.3945 937.012 47.3555V41.9414C936.488 40.9258 935.645 40.418 934.48 40.418C933.559 40.418 932.848 40.7852 932.348 41.5195C931.848 42.2461 931.598 43.3438 931.598 44.8125ZM946.07 44.6602V51H943.105V33.9375H949.633C951.539 33.9375 953.051 34.4336 954.168 35.4258C955.293 36.418 955.855 37.7305 955.855 39.3633C955.855 41.0352 955.305 42.3359 954.203 43.2656C953.109 44.1953 951.574 44.6602 949.598 44.6602H946.07ZM946.07 42.2812H949.633C950.688 42.2812 951.492 42.0352 952.047 41.543C952.602 41.043 952.879 40.3242 952.879 39.3867C952.879 38.4648 952.598 37.7305 952.035 37.1836C951.473 36.6289 950.699 36.3438 949.715 36.3281H946.07V42.2812ZM961.211 51H958.363V38.3203H961.211V51ZM958.188 35.0273C958.188 34.5898 958.324 34.2266 958.598 33.9375C958.879 33.6484 959.277 33.5039 959.793 33.5039C960.309 33.5039 960.707 33.6484 960.988 33.9375C961.27 34.2266 961.41 34.5898 961.41 35.0273C961.41 35.457 961.27 35.8164 960.988 36.1055C960.707 36.3867 960.309 36.5273 959.793 36.5273C959.277 36.5273 958.879 36.3867 958.598 36.1055C958.324 35.8164 958.188 35.457 958.188 35.0273ZM975.426 44.7891C975.426 46.75 974.98 48.3164 974.09 49.4883C973.199 50.6523 972.004 51.2344 970.504 51.2344C969.113 51.2344 968 50.7773 967.164 49.8633V55.875H964.316V38.3203H966.941L967.059 39.6094C967.895 38.5938 969.031 38.0859 970.469 38.0859C972.016 38.0859 973.227 38.6641 974.102 39.8203C974.984 40.9688 975.426 42.5664 975.426 44.6133V44.7891ZM972.59 44.543C972.59 43.2773 972.336 42.2734 971.828 41.5312C971.328 40.7891 970.609 40.418 969.672 40.418C968.508 40.418 967.672 40.8984 967.164 41.8594V47.4844C967.68 48.4688 968.523 48.9609 969.695 48.9609C970.602 48.9609 971.309 48.5977 971.816 47.8711C972.332 47.1367 972.59 46.0273 972.59 44.543ZM983.43 51.2344C981.625 51.2344 980.16 50.668 979.035 49.5352C977.918 48.3945 977.359 46.8789 977.359 44.9883V44.6367C977.359 43.3711 977.602 42.2422 978.086 41.25C978.578 40.25 979.266 39.4727 980.148 38.918C981.031 38.3633 982.016 38.0859 983.102 38.0859C984.828 38.0859 986.16 38.6367 987.098 39.7383C988.043 40.8398 988.516 42.3984 988.516 44.4141V45.5625H980.23C980.316 46.6094 980.664 47.4375 981.273 48.0469C981.891 48.6562 982.664 48.9609 983.594 48.9609C984.898 48.9609 985.961 48.4336 986.781 47.3789L988.316 48.8438C987.809 49.6016 987.129 50.1914 986.277 50.6133C985.434 51.0273 984.484 51.2344 983.43 51.2344ZM983.09 40.3711C982.309 40.3711 981.676 40.6445 981.191 41.1914C980.715 41.7383 980.41 42.5 980.277 43.4766H985.703V43.2656C985.641 42.3125 985.387 41.5938 984.941 41.1094C984.496 40.6172 983.879 40.3711 983.09 40.3711ZM997.375 40.9219C997 40.8594 996.613 40.8281 996.215 40.8281C994.91 40.8281 994.031 41.3281 993.578 42.3281V51H990.73V38.3203H993.449L993.52 39.7383C994.207 38.6367 995.16 38.0859 996.379 38.0859C996.785 38.0859 997.121 38.1406 997.387 38.25L997.375 40.9219ZM1012.47 45.4453C1012.3 47.2656 1011.62 48.6875 1010.45 49.7109C1009.28 50.7266 1007.72 51.2344 1005.78 51.2344C1004.42 51.2344 1003.22 50.9141 1002.18 50.2734C1001.15 49.625 1000.35 48.707 999.789 47.5195C999.227 46.332 998.934 44.9531 998.91 43.3828V41.7891C998.91 40.1797 999.195 38.7617 999.766 37.5352C1000.34 36.3086 1001.15 35.3633 1002.21 34.6992C1003.29 34.0352 1004.52 33.7031 1005.92 33.7031C1007.8 33.7031 1009.32 34.2148 1010.46 35.2383C1011.61 36.2617 1012.28 37.707 1012.47 39.5742H1009.52C1009.38 38.3477 1009.02 37.4648 1008.44 36.9258C1007.87 36.3789 1007.03 36.1055 1005.92 36.1055C1004.63 36.1055 1003.64 36.5781 1002.94 37.5234C1002.25 38.4609 1001.9 39.8398 1001.89 41.6602V43.1719C1001.89 45.0156 1002.21 46.4219 1002.87 47.3906C1003.54 48.3594 1004.5 48.8438 1005.78 48.8438C1006.94 48.8438 1007.82 48.582 1008.4 48.0586C1008.99 47.5352 1009.36 46.6641 1009.52 45.4453H1012.47ZM1014.32 44.543C1014.32 43.3008 1014.57 42.1836 1015.06 41.1914C1015.55 40.1914 1016.24 39.4258 1017.13 38.8945C1018.02 38.3555 1019.05 38.0859 1020.2 38.0859C1021.91 38.0859 1023.3 38.6367 1024.36 39.7383C1025.43 40.8398 1026.01 42.3008 1026.1 44.1211L1026.11 44.7891C1026.11 46.0391 1025.87 47.1562 1025.38 48.1406C1024.91 49.125 1024.22 49.8867 1023.32 50.4258C1022.43 50.9648 1021.4 51.2344 1020.23 51.2344C1018.44 51.2344 1017 50.6406 1015.93 49.4531C1014.86 48.2578 1014.32 46.668 1014.32 44.6836V44.543ZM1017.17 44.7891C1017.17 46.0938 1017.44 47.1172 1017.98 47.8594C1018.52 48.5938 1019.27 48.9609 1020.23 48.9609C1021.19 48.9609 1021.93 48.5859 1022.46 47.8359C1023 47.0859 1023.27 45.9883 1023.27 44.543C1023.27 43.2617 1023 42.2461 1022.44 41.4961C1021.89 40.7461 1021.15 40.3711 1020.2 40.3711C1019.27 40.3711 1018.54 40.7422 1017.99 41.4844C1017.44 42.2188 1017.17 43.3203 1017.17 44.7891ZM1031.55 51H1028.7V38.3203H1031.55V51ZM1028.52 35.0273C1028.52 34.5898 1028.66 34.2266 1028.93 33.9375C1029.21 33.6484 1029.61 33.5039 1030.13 33.5039C1030.64 33.5039 1031.04 33.6484 1031.32 33.9375C1031.61 34.2266 1031.75 34.5898 1031.75 35.0273C1031.75 35.457 1031.61 35.8164 1031.32 36.1055C1031.04 36.3867 1030.64 36.5273 1030.13 36.5273C1029.61 36.5273 1029.21 36.3867 1028.93 36.1055C1028.66 35.8164 1028.52 35.457 1028.52 35.0273ZM1037.3 38.3203L1037.38 39.7852C1038.32 38.6523 1039.55 38.0859 1041.07 38.0859C1043.71 38.0859 1045.06 39.5977 1045.11 42.6211V51H1042.26V42.7852C1042.26 41.9805 1042.08 41.3867 1041.73 41.0039C1041.39 40.6133 1040.82 40.418 1040.03 40.418C1038.88 40.418 1038.03 40.9375 1037.46 41.9766V51H1034.62V38.3203H1037.3Z" fill="white"/>
<path d="M1059.48 54.1641H1057.53V33.9375H1059.48V54.1641Z" fill="white"/>
<path d="M882.484 53.1641H880.527V32.9375H882.484V53.1641Z" fill="white"/>
<defs>
<clipPath id="clip0">
<rect width="184" height="45" fill="white" transform="translate(55 20)"/>
</clipPath>
</defs>
</svg>
